<svg xmlns="http://www.w3.org/2000/svg" xmlns:xlink="http://www.w3.org/1999/xlink" viewBox="0 0 425 425"><defs><style>.cls-1{fill:url(#radial-gradient);}.cls-2{fill:url(#linear-gradient);}.cls-3{fill:url(#linear-gradient-2);}.cls-4{fill:url(#linear-gradient-3);}.cls-5{fill:url(#linear-gradient-4);}.cls-6{fill:url(#linear-gradient-5);}.cls-7{fill:url(#linear-gradient-6);}.cls-8{fill:url(#linear-gradient-7);}.cls-9{fill:url(#linear-gradient-8);}.cls-10{fill:url(#linear-gradient-9);}.cls-11{fill:url(#linear-gradient-10);}.cls-12{fill:url(#linear-gradient-11);}.cls-13{fill:url(#linear-gradient-12);}.cls-14{fill:url(#linear-gradient-13);}.cls-15{fill:url(#linear-gradient-14);}.cls-16{fill:url(#linear-gradient-15);}.cls-17{fill:url(#linear-gradient-16);}.cls-18{fill:url(#linear-gradient-17);}.cls-19{fill:url(#linear-gradient-18);}.cls-20{fill:url(#linear-gradient-19);}.cls-21{fill:url(#radial-gradient-2);}.cls-22{fill:url(#radial-gradient-3);}.cls-23{fill:url(#radial-gradient-4);}.cls-24{fill:url(#radial-gradient-5);}</style><radialGradient id="radial-gradient" cx="210.38" cy="203.62" r="350.78" gradientUnits="userSpaceOnUse"><stop offset="0.08" stop-color="#001e34"/><stop offset="1" stop-color="#003d49"/></radialGradient><linearGradient id="linear-gradient" x1="120.01" y1="-80.96" x2="102.65" y2="92.66" gradientUnits="userSpaceOnUse"><stop offset="0" stop-color="#205072"/><stop offset="0.14" stop-color="#1b6b88"/><stop offset="0.74" stop-color="#08d5dd"/><stop offset="1" stop-color="aqua"/></linearGradient><linearGradient id="linear-gradient-2" x1="168.83" y1="-76.08" x2="151.47" y2="97.54" xlink:href="#linear-gradient"/><linearGradient id="linear-gradient-3" x1="202.89" y1="-72.67" x2="185.53" y2="100.94" xlink:href="#linear-gradient"/><linearGradient id="linear-gradient-4" x1="237.56" y1="-69.21" x2="220.2" y2="104.41" xlink:href="#linear-gradient"/><linearGradient id="linear-gradient-5" x1="274.95" y1="-65.47" x2="257.59" y2="108.15" xlink:href="#linear-gradient"/><linearGradient id="linear-gradient-6" x1="317.11" y1="-61.25" x2="299.75" y2="112.37" xlink:href="#linear-gradient"/><linearGradient id="linear-gradient-7" x1="351.72" y1="-57.79" x2="334.36" y2="115.83" xlink:href="#linear-gradient"/><linearGradient id="linear-gradient-8" x1="94.16" y1="536.13" x2="78.82" y2="360.32" xlink:href="#linear-gradient"/><linearGradient id="linear-gradient-9" x1="123.62" y1="533.45" x2="108.25" y2="357.3" xlink:href="#linear-gradient"/><linearGradient id="linear-gradient-10" x1="160.24" y1="528.84" x2="144.95" y2="353.65" xlink:href="#linear-gradient"/><linearGradient id="linear-gradient-11" x1="205.48" y1="524.41" x2="190.19" y2="349.14" xlink:href="#linear-gradient"/><linearGradient id="linear-gradient-12" x1="244.89" y1="520.75" x2="229.58" y2="345.21" xlink:href="#linear-gradient"/><linearGradient id="linear-gradient-13" x1="278.39" y1="518.1" x2="262.98" y2="341.48" xlink:href="#linear-gradient"/><linearGradient id="linear-gradient-14" x1="314.43" y1="513.5" x2="299.12" y2="338.09" xlink:href="#linear-gradient"/><linearGradient id="linear-gradient-15" x1="349.17" y1="510.43" x2="333.83" y2="334.55" xlink:href="#linear-gradient"/><linearGradient id="linear-gradient-16" x1="377.02" y1="507.42" x2="361.69" y2="331.68" xlink:href="#linear-gradient"/><linearGradient id="linear-gradient-17" x1="153.61" y1="272.82" x2="158.31" y2="205.89" xlink:href="#linear-gradient"/><linearGradient id="linear-gradient-18" x1="209.41" y1="276.74" x2="214.11" y2="209.8" xlink:href="#linear-gradient"/><linearGradient id="linear-gradient-19" x1="271.34" y1="281.08" x2="276.04" y2="214.15" xlink:href="#linear-gradient"/><radialGradient id="radial-gradient-2" cx="101.21" cy="223.58" r="19.56" xlink:href="#linear-gradient"/><radialGradient id="radial-gradient-3" cx="63.64" cy="188.12" r="63.34" xlink:href="#linear-gradient"/><radialGradient id="radial-gradient-4" cx="362.35" cy="188.12" r="63.34" xlink:href="#linear-gradient"/><radialGradient id="radial-gradient-5" cx="327.91" cy="223.58" r="19.56" xlink:href="#linear-gradient"/></defs><title>Asset 11</title><g id="Layer_2" data-name="Layer 2"><g id="Layer_1-2" data-name="Layer 1"><circle class="cls-1" cx="212.5" cy="212.5" r="212.5"/><path class="cls-2" d="M74.23,65.64l7.72-5L101.39,91l.23-.15L95.09,52.16l5.88-3.8L123.35,76.8l.23-.15L113.93,40,122,34.77l12.27,52.86L127,92.36,104.42,64.2l-.23.15L110.53,103l-7.32,4.73Z"/><path class="cls-3" d="M140.83,75l-3.4-21.17,5.07-9.08,18.55-6.2,8.57,5.74,3.44,21.31-4.92,8.87L149.4,80.77ZM162,68.09l1.86-3.31-2.47-15.17-2.7-1.79L148.5,51.24l-1.86,3.31L149,69.74l2.7,1.79Z"/><path class="cls-4" d="M180.35,34.57l8.29-1.15-.2,6.14,5.64-6.88,9.65-1.33-.25,8.28-7.54,1-7.13,8.63-.52,20.84-9,1.24Z"/><path class="cls-5" d="M215.93,15.71l9,.4L218.85,45l5.55.24,11.48-12.86,10.42.45L231.22,49.67l8.16,19.19-9.32-.4-6.49-15.11-6.44-.28L214,67.76,205,67.37Z"/><path class="cls-6" d="M242.42,60.83,251,41.2l9.17-4.89,18.95,4.82,4.1,9.48-8.64,19.78-8.94,4.79-19.15-4.87ZM264,66.48l3.36-1.78,6.13-14.1-1.3-3L261.75,45l-3.36,1.78-6.2,14.08,1.29,3Z"/><path class="cls-7" d="M281.33,71.1l16.75-23,8.09,4.07-15.36,21,.6,3.08,4.78,2.41L306.7,75.8l12.46-17.08,8.08,4.08L305.5,92.52,298,88.75l3.71-5.08-9,2.42-9.49-4.79Z"/><path class="cls-8" d="M319,92l14.85-14.11-4.93-3.72,6-5.64,5,3.8L348.54,64l7.12,5.37L347,77.68,355.34,84l-6,5.69L341,83.37,328.06,95.63l.13,3.12,6.47,4.88-6,5.69-9.47-7.15Z"/><path class="cls-9" d="M47.61,318l27.1-25,11.6-.12L104,311.15l-.71,12.94-5.74,5.27-7-7.19,3.28-3.05.34-5L83.74,303.32l-5.55,0L57,322.87l-.33,5.42,10.69,11h5.24l6.32-5.91-7.62-7.87L78,319.32l14.37,14.85L75.85,349.56l-11.3,0L46.8,331.19Z"/><path class="cls-10" d="M87.43,358.49,101,339.09l10.2-2.61,16.7,11,1.45,11.81-8.43,12L99.74,357.36l-3,4.26.36,3.44,9.66,6.35,3.27-.86,1.17-1.75,7.76,5.09-3.48,5L106,381.36,88.83,370.07Zm29.88,1.5,2.75-3.82-.41-3.67-9.24-6.07-3.65,1L104,351.25Z"/><path class="cls-11" d="M142.49,355l8,3-2.83,6.29,8.25-4.28,10,3.72,3.74,11.93-12.84,28.78-8.62-3.2L160,374.55l-1-3.49-5.23-1.94-9.87,5.18L134.24,396l-8.62-3.21Z"/><path class="cls-12" d="M174.47,399.86l5.65-24.08,8.43-7.14,19.11,2.26L213.11,381,209.58,396l-24.23-2.87-1.23,5.28,1.53,3,11.06,1.31,2.69-2.31.46-2.15,8.88,1.05-1.45,6.18-7.83,6.7-19.66-2.32Zm27.87-12.55,1.19-4.78-1.66-3.16-10.58-1.25-3,2.61-1.18,4.78Z"/><path class="cls-13" d="M223.47,370.62l8.35-.71-.59,7.07,6.06-7.53,9.72-.82-.77,9.53-7.6.64L231,388.24l-1.85,24-9,.77Z"/><path class="cls-14" d="M251.78,401.77l-.67-9.52,5.24-8.95,17.26-4.87-.42-5.34L271,371l-9.93,2.8L259.19,377l.15,2.38-8.66,2.45-.26-5.57,6-10.37,17.07-4.81,8.34,7.71L284,401.37,276,403.61l-.43-6L271.1,405,259,408.42Zm18.16-5.29,4.4-7.23-.17-2.82L261.64,390,260,392.78l.26,4.26,1.83,1.66Z"/><path class="cls-15" d="M298.37,385.57l-5-23-5.66,2.85-2-9.22,5.79-2.91-3-13.41,8.18-4.11,3,13.4,9.56-4.81,2,9.29-9.56,4.81,4.32,20,2.78,1.63,7.42-3.73,2,9.29-10.88,5.47Z"/><path class="cls-16" d="M325.14,371.66,316.48,349l2.6-11.63L335.44,325l9.76,3.91,8.73,22.81-2.5,11.36-16.54,12.51Zm18.74-14,.95-4.25-6.24-16.23L335.53,336l-9,6.81-.95,4.25,6.18,16.28,3.07,1.21Z"/><path class="cls-17" d="M347.85,313.09l6.14-6.57,3.36,5.94L358,302.2l7.14-7.65,4.55,8-5.59,6-.88,12.89,11.52,20.08-6.65,7.11Z"/><path class="cls-18" d="M138.72,236.76l-6.12,12.07H119.26l36-72.07,24,48.11H165.84L155.3,203.69l-10.63,21.18Zm52.61,12.07H177.91l-5.95-12H185.3Z"/><path class="cls-19" d="M244.23,177.32v70.45a.92.92,0,0,1-1,.81H231.35c-.18,0-.72-.09-.81-.27l-33.16-47.48v30.45H183.6v-54a1,1,0,0,1,.9-.81h12c.18,0,.72.09.81.27l33.25,47.47V177.32a1,1,0,0,1,1.08-.81h11.62A.92.92,0,0,1,244.23,177.32Z"/><path class="cls-20" d="M304,248.58h-15.5a2.15,2.15,0,0,1-.81-.27l-21-25.95c-1.8,1.89-19.37,21.8-19.37,21.8V177.32a1,1,0,0,1,1-.81h11.89a.89.89,0,0,1,.9.81v32.79l27.12-33.33a2.15,2.15,0,0,1,.81-.27h14.69c1,0,1.44.72.81,1.35l-28.65,35.31,28.92,34.06C305.31,248,304.86,248.58,304,248.58Z"/><path class="cls-21" d="M75.19,215.71l-.49.3c6.43,9.62,16.93,13.49,26.55,14.82,8.58,1.18,22.63.42,26.35-.14l.12-.9C117.84,230.51,90.44,232.34,75.19,215.71Z"/><path class="cls-22" d="M14.84,246.83c-3.3-5.39,3.45-38.57,11.29-55.47,8.41-18.12,19.28-34.93,24.47-40.28,5-5.19,16.77-18.06,21.62-18.59C76.39,132,85,135.28,87.33,140c.92,1.85.59,5.11-.89,8.95-2.15,5.54-6,10.61-9,11.77-5.58,2.17-16.9,5.67-17,5.71l-.37.5c-.94,3.05-9.47,47.82-9.6,50.63-1.25,9-7,14.91-15.21,14.53l-.08.59c8.65,1.2,15.61-4.62,17-14.15C65.22,203.29,77.9,202,98.22,211.8l.31-.53a61.19,61.19,0,0,0-11-5.1c6.61-7.87,16.3-11.17,26-8.84l.42-3.09c-13-2.87-22.22,4.43-27.45,11.57-17.1-5.42-27.84,2-34.28,10.73,0-.29,10.66-46.42,10.87-47,2-.63,10.56-3.85,15.59-5.8,2.43-.95,5-4.41,7-8.22l1.86,1.26-7.19,10.67a2.14,2.14,0,0,0,.27,3l4.15,2.79a2.12,2.12,0,0,0,2.85-.86l1-1.48h0l4.15,2.8a2.13,2.13,0,0,0,2.85-.87l1.83-2.72h0l4.15,2.79a2.14,2.14,0,0,0,2.86-.86l6.78-10.07a2.13,2.13,0,0,0-.26-3l-4.15-2.8h0l1.83-2.72a2.14,2.14,0,0,0-.27-3l-4.15-2.79h0l1-1.48a2.14,2.14,0,0,0-.27-3l-4.15-2.8a2.13,2.13,0,0,0-2.85.87L90.77,152,88,150.12c.09-.24.2-.51.28-.75.81-2.45,1.39-7,0-9.85-2.55-5.15-11.6-8.57-16.15-8.07-1.71.18-4,1.57-6.52,3.54l-5.33-3.59,7.19-10.67a2.12,2.12,0,0,0-.27-3L63,115a2.14,2.14,0,0,0-2.86.86l-1,1.48h0L55,114.51a2.14,2.14,0,0,0-2.86.87l-1.83,2.72h0L46.2,115.3a2.12,2.12,0,0,0-2.85.86l-6.79,10.07a2.14,2.14,0,0,0,.27,3L41,132h0l-1.83,2.72a2.13,2.13,0,0,0,.26,3l4.15,2.79h0l-1,1.47a2.13,2.13,0,0,0,.26,3l4.15,2.8a2.14,2.14,0,0,0,2.86-.87L57,136.2l4,2.72c-4.39,4.11-8.73,8.87-11.22,11.43-5.39,5.55-16.07,22-24.67,40.57C17.06,208.43,10.45,241.66,14,247.38c9.29,15.13,62.05,20.68,99.67,6.13l.67-4.87C104,252.3,84.87,255.45,73,257.19,37.08,262.45,18.31,252.48,14.84,246.83Zm94.83-86-6.78,10.06-4.15-2.79,6.78-10.07Zm-2.58-8.49-13,19.34-4.15-2.8,13-19.34Zm-7.57-10,4.15,2.8L86.05,171.28l-4.15-2.8Zm-61.4-15.07,6.79-10.06L49.06,120l-6.79,10.07Zm2.59,8.49,13-19.34,4.15,2.8-13,19.34Zm7.57,10L44.13,143l17.61-26.14,4.15,2.8Z"/><path class="cls-23" d="M400.81,190.92c-8.6-18.53-19.28-35-24.67-40.57-2.49-2.56-6.83-7.32-11.22-11.43l4-2.72,7.19,10.66a2.14,2.14,0,0,0,2.86.87l4.15-2.8a2.13,2.13,0,0,0,.26-3l-1-1.47h0l4.15-2.79a2.14,2.14,0,0,0,.27-3L385,132h0l4.15-2.8a2.12,2.12,0,0,0,.27-3l-6.79-10.07a2.12,2.12,0,0,0-2.85-.86l-4.15,2.79h0l-1.83-2.72a2.13,2.13,0,0,0-2.85-.87l-4.15,2.8h0l-1-1.48A2.13,2.13,0,0,0,363,115l-4.15,2.79a2.12,2.12,0,0,0-.27,3l7.19,10.67L360.4,135c-2.51-2-4.81-3.36-6.52-3.54-4.55-.5-13.6,2.92-16.15,8.07-1.44,2.9-.86,7.4-.05,9.85.08.24.19.51.28.75L335.22,152,328,141.3a2.13,2.13,0,0,0-2.85-.87l-4.15,2.8a2.14,2.14,0,0,0-.27,3l1,1.48h0l-4.15,2.79a2.14,2.14,0,0,0-.27,3l1.83,2.72h0L315,159a2.13,2.13,0,0,0-.26,3L321.54,172a2.14,2.14,0,0,0,2.86.86l4.15-2.79h0l1.83,2.72a2.13,2.13,0,0,0,2.85.87l4.15-2.8h0l1,1.48a2.12,2.12,0,0,0,2.85.86l4.15-2.79a2.14,2.14,0,0,0,.27-3l-7.19-10.67,1.86-1.26c2,3.81,4.56,7.27,7,8.22,5,1.95,13.57,5.17,15.59,5.8.21.6,10.83,46.73,10.87,47-6.44-8.7-17.18-16.15-34.28-10.73-5.23-7.14-14.45-14.44-27.45-11.57l.42,3.09c9.66-2.33,19.35,1,26,8.84a61.51,61.51,0,0,0-11,5.1l.31.53c20.33-9.81,33-8.51,46.12,6.72,1.37,9.53,8.34,15.35,17,14.15l-.08-.59c-8.17.38-14-5.53-15.21-14.53-.13-2.81-8.66-47.58-9.6-50.63l-.37-.5c-.11,0-11.43-3.54-17-5.71-3-1.16-6.9-6.23-9.05-11.77-1.48-3.84-1.81-7.1-.89-8.95,2.34-4.71,10.94-8,15.11-7.5,4.85.53,16.59,13.4,21.62,18.59,5.19,5.35,16.06,22.16,24.47,40.28,7.84,16.9,14.59,50.08,11.29,55.47-3.47,5.65-22.24,15.62-58.13,10.36-11.9-1.74-31-4.89-41.32-8.55l.67,4.87c37.62,14.55,90.38,9,99.67-6.13C415.54,241.66,408.93,208.43,400.81,190.92Zm-19.73-73.7,6.79,10.06-4.15,2.8L376.93,120Zm-8.83-.79,13,19.34-4.14,2.8-13-19.34Zm-12.15,3.25,4.15-2.8L381.86,143l-4.15,2.79Zm-37,51.26-6.78-10.06,4.15-2.8,6.78,10.07Zm8.84.79-13-19.34,4.15-2.8,13,19.34Zm12.15-3.25-4.15,2.8-17.62-26.13,4.15-2.8Z"/><path class="cls-24" d="M327.87,230.83c9.63-1.33,20.12-5.2,26.56-14.82l-.5-.3c-15.25,16.63-42.65,14.8-52.53,14.08l.12.9C305.24,231.25,319.29,232,327.87,230.83Z"/></g></g></svg>