<svg xmlns="http://www.w3.org/2000/svg" xmlns:xlink="http://www.w3.org/1999/xlink" viewBox="0 0 425 425"><defs><style>.cls-1{fill:url(#radial-gradient);}.cls-2{fill:url(#radial-gradient-2);}.cls-3{fill:url(#radial-gradient-9);}.cls-4{fill:url(#linear-gradient);}.cls-5{fill:url(#linear-gradient-2);}.cls-6{fill:url(#linear-gradient-3);}.cls-7{fill:url(#radial-gradient-18);}.cls-8{fill:url(#radial-gradient-19);}.cls-9{fill:url(#radial-gradient-20);}.cls-10{fill:url(#radial-gradient-21);}</style><radialGradient id="radial-gradient" cx="201.19" cy="267.66" r="358.35" gradientUnits="userSpaceOnUse"><stop offset="0.08" stop-color="#001e34"/><stop offset="1" stop-color="#003d49"/></radialGradient><radialGradient id="radial-gradient-2" cx="309.45" cy="-167.4" r="216.5" gradientUnits="userSpaceOnUse"><stop offset="0" stop-color="#205072"/><stop offset="0.14" stop-color="#1b6b88"/><stop offset="0.74" stop-color="#08d5dd"/><stop offset="1" stop-color="aqua"/></radialGradient><radialGradient id="radial-gradient-9" cx="209.36" cy="25.62" r="263.43" xlink:href="#radial-gradient-2"/><linearGradient id="linear-gradient" x1="153.61" y1="272.82" x2="158.31" y2="205.89" xlink:href="#radial-gradient-2"/><linearGradient id="linear-gradient-2" x1="209.41" y1="276.74" x2="214.11" y2="209.8" xlink:href="#radial-gradient-2"/><linearGradient id="linear-gradient-3" x1="271.34" y1="281.08" x2="276.04" y2="214.15" xlink:href="#radial-gradient-2"/><radialGradient id="radial-gradient-18" cx="101.21" cy="223.58" r="19.56" xlink:href="#radial-gradient-2"/><radialGradient id="radial-gradient-19" cx="63.64" cy="188.12" r="63.34" xlink:href="#radial-gradient-2"/><radialGradient id="radial-gradient-20" cx="362.35" cy="188.12" r="63.34" xlink:href="#radial-gradient-2"/><radialGradient id="radial-gradient-21" cx="327.91" cy="223.58" r="19.56" xlink:href="#radial-gradient-2"/></defs><title>Asset 12</title><g id="Layer_2" data-name="Layer 2"><g id="Layer_1-2" data-name="Layer 1"><circle class="cls-1" cx="212.5" cy="212.5" r="212.5"/><path class="cls-2" d="M119.26,96.47,85.63,58.73l5.56-3L107.81,75c4.11,4.75,8.1,9.56,11.07,13.34l.13-.06c-1.65-4.66-3.15-10.48-4.77-16.82l-6.31-24.77,5.5-2.95,16.77,19.3C134.12,67.6,138,72.16,141,76.39l.12-.06c-1.71-5.21-3.16-10.65-4.79-16.73L130,34.87,135.36,32l11.76,49.5-5.5,3L124.35,64.66A156.33,156.33,0,0,1,114.09,52L114,52a162.76,162.76,0,0,1,4.46,15.82l6.33,25.67Z"/><path class="cls-2" d="M184.47,51.92c3.22,12.66-3.63,20.27-11.41,22.25-8.71,2.22-17.15-2.86-19.9-13.67-2.92-11.46,2.42-20,11.33-22.24C173.74,35.91,181.8,41.46,184.47,51.92ZM159,58.78c1.91,7.49,7.4,12.11,13.12,10.66s8.36-8.07,6.4-15.78c-1.48-5.8-6.08-12.45-13-10.7S157.37,52.27,159,58.78Z"/><path class="cls-2" d="M192.51,45c-.36-4.15-.73-7.7-1.22-10.95l5.27-.46.8,6.89.27,0c1.1-4.85,4.46-8.14,8.5-8.49a6,6,0,0,1,1.72.07l.52,6a8.71,8.71,0,0,0-2.07,0c-4.23.37-7,4-7.35,8.91a18.57,18.57,0,0,0,0,3l1.62,18.75-6,.52Z"/><path class="cls-2" d="M222.63,48.94h.14c.9-1.18,2.15-2.64,3.19-3.82l10.48-11.55,7.26.45L230,47.72l13.3,21.66L236,68.92l-10.38-17.6-3.31,3.45L221.45,68l-6-.37L218.7,16l6,.37Z"/><path class="cls-2" d="M278.92,60.08c-3.25,12.64-12.91,16-20.69,14-8.7-2.24-13.67-10.74-10.89-21.55,2.94-11.45,11.71-16.35,20.61-14.06C277.19,40.88,281.6,49.62,278.92,60.08Zm-25.61-6.21c-1.93,7.49.67,14.19,6.39,15.65s11.2-3.07,13.18-10.77c1.49-5.79.65-13.84-6.26-15.61S255,47.37,253.31,53.87Z"/><path class="cls-2" d="M308.44,83c-1.6,3.28-2.95,6.19-4,8.78l-4.81-2.35,2.22-5.33-.12-.06A12.42,12.42,0,0,1,289,85.15c-4.68-2.29-8.95-7.78-3.51-18.92l9.05-18.56L300,50.32,291.4,67.89c-2.95,6-3.21,10.94,1.73,13.35a8.8,8.8,0,0,0,9.71-1.75,9.92,9.92,0,0,0,1.93-2.71l9.51-19.47L319.7,60Z"/><path class="cls-2" d="M343,63.35l-5.83,8.3,7.07,5-2.81,4-7.07-5L323.41,91.22c-2.52,3.58-3,6.28-.24,8.21a12.86,12.86,0,0,0,3.11,1.66l-2.54,4.09a13.94,13.94,0,0,1-4.88-2.36,8.09,8.09,0,0,1-3.78-5.95c-.32-2.54,1-5.46,3.37-8.86l11.07-15.76-4.21-3,2.81-4,4.21,3,4.87-6.92Z"/><path class="cls-3" d="M90.2,373.69a39.86,39.86,0,0,1-12.87-6.16c-5.55-4.1-9-9-9.85-15.36-.73-5.61,1.21-12.34,5.76-18.5,8.77-11.75,22.65-14.82,35-5.73a26.5,26.5,0,0,1,7.8,8.58l-4.22,3.32a22.26,22.26,0,0,0-6.85-7.7c-8.93-6.6-19.17-4.92-26.5,5s-6.18,20.09,2.36,26.41c3.1,2.29,5.57,3.39,7.09,3.61l8.71-11.79-7.45-5.51,3-4.11,12.08,8.93Z"/><path class="cls-3" d="M115,370.76c-3.51,7.94-.34,13.34,5.07,15.84a20.28,20.28,0,0,0,9,2.14l-1,4.6a24.92,24.92,0,0,1-10.81-2.58c-9.16-4.22-11.63-13.24-7.17-22.91S123.33,353,132,357c9.71,4.48,8,14.88,5.32,20.77a23.69,23.69,0,0,1-1.44,2.63Zm17.78,3.15c1.77-3.68,3-10.12-3.13-12.93-5.47-2.52-10.37,1.8-12.66,5.64Z"/><path class="cls-3" d="M150.55,375.73c.87-3.55,1.51-6.47,2-9.35l5.13,1.25-1.05,5.75.13,0a12,12,0,0,1,12.09-3.88c4.4,1.08,10.55,5.58,7.68,17.35l-5,20.48-5.79-1.42,4.83-19.77c1.35-5.52.57-10.6-4.89-11.93-3.81-.93-7.48,1.25-9.31,4.48a9.81,9.81,0,0,0-1.11,2.81l-5,20.62-5.79-1.41Z"/><path class="cls-3" d="M193.93,393.46c-.26,8.68,4.72,12.48,10.67,12.75a20.23,20.23,0,0,0,9.14-1.42l.8,4.64a24.87,24.87,0,0,1-11,1.69c-10.07-.45-15.77-7.86-15.29-18.5s6.67-18.75,16.2-18.33c10.68.49,13.07,10.74,12.78,17.22a25.23,25.23,0,0,1-.34,3Zm17.64-3.81c.25-4.07-1.08-10.48-7.78-10.79-6-.27-8.92,5.59-9.59,10Z"/><path class="cls-3" d="M228,385.75c-.44-4.13-.89-7.68-1.44-10.92l5.18-.56.94,6.87.27,0c1-4.87,4.22-8.23,8.19-8.65a6,6,0,0,1,1.71,0l.64,6a8.61,8.61,0,0,0-2,0c-4.17.45-6.77,4.18-7.06,9.05a19.15,19.15,0,0,0,0,3l2,18.71-5.85.63Z"/><path class="cls-3" d="M276.4,401.51l-1.58-4.19-.19.05a12,12,0,0,1-8.38,7.6c-6.41,1.67-10.95-2.35-12.24-7.3-2.14-8.26,3.49-14.54,15.76-17.65l-.19-.71c-.73-2.82-2.77-7.72-9.25-6a15.48,15.48,0,0,0-7.59,4.69l-2.38-3.76a19.27,19.27,0,0,1,9.63-5.74c9.69-2.51,13.9,4,15.68,10.85L279,392.09a52.77,52.77,0,0,0,2.65,8.05ZM271,384.29c-6.33,1.49-13.15,4.54-11.43,11.18,1.05,4,4,5.29,7,4.52a8.24,8.24,0,0,0,6.18-7.71,7.36,7.36,0,0,0-.19-2.06Z"/><path class="cls-3" d="M285,350.11l4,9.34,7.85-3.33,1.91,4.5L290.87,364l7.44,17.52c1.71,4,3.74,5.86,6.79,4.57a12.48,12.48,0,0,0,3-1.75l2.13,4.33a13.69,13.69,0,0,1-4.51,2.86,7.94,7.94,0,0,1-7,0c-2.29-1.09-4.08-3.74-5.7-7.56l-7.53-17.73-4.67,2-1.91-4.5,4.68-2-3.31-7.79Z"/><path class="cls-3" d="M338.28,351.86c6.89,11.09,2.77,20.35-3.95,24.53-7.53,4.68-17,2.35-22.92-7.13-6.24-10-3.81-19.71,3.89-24.5C323.29,339.79,332.58,342.69,338.28,351.86Zm-21.88,14c4.09,6.57,10.67,9.34,15.61,6.27s5.41-10.15,1.21-16.9c-3.16-5.08-9.52-10.06-15.49-6.34S312.86,360.19,316.4,365.89Z"/><path class="cls-3" d="M343.13,339.53c-2.7-3.16-5.08-5.83-7.37-8.19l4-3.39,4.66,5.13.21-.17c-1.95-4.57-1.17-9.18,1.86-11.77a6,6,0,0,1,1.43-.93l3.93,4.6a8.27,8.27,0,0,0-1.68,1.15c-3.19,2.73-3.22,7.27-.71,11.45a18.42,18.42,0,0,0,1.74,2.45l12.23,14.31L358.92,358Z"/><path class="cls-4" d="M138.72,236.76l-6.12,12.07H119.26l36-72.07,24,48.11H165.84L155.3,203.69l-10.63,21.18Zm52.61,12.07H177.91l-5.95-12H185.3Z"/><path class="cls-5" d="M244.23,177.32v70.45a.92.92,0,0,1-1,.81H231.35c-.18,0-.72-.09-.81-.27l-33.16-47.48v30.45H183.6v-54a1,1,0,0,1,.9-.81h12c.18,0,.72.09.81.27l33.25,47.47V177.32a1,1,0,0,1,1.08-.81h11.62A.92.92,0,0,1,244.23,177.32Z"/><path class="cls-6" d="M304,248.58h-15.5a2.15,2.15,0,0,1-.81-.27l-21-25.95c-1.8,1.89-19.37,21.8-19.37,21.8V177.32a1,1,0,0,1,1-.81h11.89a.89.89,0,0,1,.9.81v32.79l27.12-33.33a2.15,2.15,0,0,1,.81-.27h14.69c1,0,1.44.72.81,1.35l-28.65,35.31,28.92,34.06C305.31,248,304.86,248.58,304,248.58Z"/><path class="cls-7" d="M75.19,215.71l-.49.3c6.43,9.62,16.93,13.49,26.55,14.82,8.58,1.18,22.63.42,26.35-.14l.12-.9C117.84,230.51,90.44,232.34,75.19,215.71Z"/><path class="cls-8" d="M14.84,246.83c-3.3-5.39,3.45-38.57,11.29-55.47,8.41-18.12,19.28-34.93,24.47-40.28,5-5.19,16.77-18.06,21.62-18.59C76.39,132,85,135.28,87.33,140c.92,1.85.59,5.11-.89,8.95-2.15,5.54-6,10.61-9,11.77-5.58,2.17-16.9,5.67-17,5.71l-.37.5c-.94,3.05-9.47,47.82-9.6,50.63-1.25,9-7,14.91-15.21,14.53l-.08.59c8.65,1.2,15.61-4.62,17-14.15C65.22,203.29,77.9,202,98.22,211.8l.31-.53a61.19,61.19,0,0,0-11-5.1c6.61-7.87,16.3-11.17,26-8.84l.42-3.09c-13-2.87-22.22,4.43-27.45,11.57-17.1-5.42-27.84,2-34.28,10.73,0-.29,10.66-46.42,10.87-47,2-.63,10.56-3.85,15.59-5.8,2.43-.95,5-4.41,7-8.22l1.86,1.26-7.19,10.67a2.14,2.14,0,0,0,.27,3l4.15,2.79a2.12,2.12,0,0,0,2.85-.86l1-1.48h0l4.15,2.8a2.13,2.13,0,0,0,2.85-.87l1.83-2.72h0l4.15,2.79a2.14,2.14,0,0,0,2.86-.86l6.78-10.07a2.13,2.13,0,0,0-.26-3l-4.15-2.8h0l1.83-2.72a2.14,2.14,0,0,0-.27-3l-4.15-2.79h0l1-1.48a2.14,2.14,0,0,0-.27-3l-4.15-2.8a2.13,2.13,0,0,0-2.85.87L90.77,152,88,150.12c.09-.24.2-.51.28-.75.81-2.45,1.39-7,0-9.85-2.55-5.15-11.6-8.57-16.15-8.07-1.71.18-4,1.57-6.52,3.54l-5.33-3.59,7.19-10.67a2.12,2.12,0,0,0-.27-3L63,115a2.14,2.14,0,0,0-2.86.86l-1,1.48h0L55,114.51a2.14,2.14,0,0,0-2.86.87l-1.83,2.72h0L46.2,115.3a2.12,2.12,0,0,0-2.85.86l-6.79,10.07a2.14,2.14,0,0,0,.27,3L41,132h0l-1.83,2.72a2.13,2.13,0,0,0,.26,3l4.15,2.79h0l-1,1.47a2.13,2.13,0,0,0,.26,3l4.15,2.8a2.14,2.14,0,0,0,2.86-.87L57,136.2l4,2.72c-4.39,4.11-8.73,8.87-11.22,11.43-5.39,5.55-16.07,22-24.67,40.57C17.06,208.43,10.45,241.66,14,247.38c9.29,15.13,62.05,20.68,99.67,6.13l.67-4.87C104,252.3,84.87,255.45,73,257.19,37.08,262.45,18.31,252.48,14.84,246.83Zm94.83-86-6.78,10.06-4.15-2.79,6.78-10.07Zm-2.58-8.49-13,19.34-4.15-2.8,13-19.34Zm-7.57-10,4.15,2.8L86.05,171.28l-4.15-2.8Zm-61.4-15.07,6.79-10.06L49.06,120l-6.79,10.07Zm2.59,8.49,13-19.34,4.15,2.8-13,19.34Zm7.57,10L44.13,143l17.61-26.14,4.15,2.8Z"/><path class="cls-9" d="M400.81,190.92c-8.6-18.53-19.28-35-24.67-40.57-2.49-2.56-6.83-7.32-11.22-11.43l4-2.72,7.19,10.66a2.14,2.14,0,0,0,2.86.87l4.15-2.8a2.13,2.13,0,0,0,.26-3l-1-1.47h0l4.15-2.79a2.14,2.14,0,0,0,.27-3L385,132h0l4.15-2.8a2.12,2.12,0,0,0,.27-3l-6.79-10.07a2.12,2.12,0,0,0-2.85-.86l-4.15,2.79h0l-1.83-2.72a2.13,2.13,0,0,0-2.85-.87l-4.15,2.8h0l-1-1.48A2.13,2.13,0,0,0,363,115l-4.15,2.79a2.12,2.12,0,0,0-.27,3l7.19,10.67L360.4,135c-2.51-2-4.81-3.36-6.52-3.54-4.55-.5-13.6,2.92-16.15,8.07-1.44,2.9-.86,7.4-.05,9.85.08.24.19.51.28.75L335.22,152,328,141.3a2.13,2.13,0,0,0-2.85-.87l-4.15,2.8a2.14,2.14,0,0,0-.27,3l1,1.48h0l-4.15,2.79a2.14,2.14,0,0,0-.27,3l1.83,2.72h0L315,159a2.13,2.13,0,0,0-.26,3L321.54,172a2.14,2.14,0,0,0,2.86.86l4.15-2.79h0l1.83,2.72a2.13,2.13,0,0,0,2.85.87l4.15-2.8h0l1,1.48a2.12,2.12,0,0,0,2.85.86l4.15-2.79a2.14,2.14,0,0,0,.27-3l-7.19-10.67,1.86-1.26c2,3.81,4.56,7.27,7,8.22,5,1.95,13.57,5.17,15.59,5.8.21.6,10.83,46.73,10.87,47-6.44-8.7-17.18-16.15-34.28-10.73-5.23-7.14-14.45-14.44-27.45-11.57l.42,3.09c9.66-2.33,19.35,1,26,8.84a61.51,61.51,0,0,0-11,5.1l.31.53c20.33-9.81,33-8.51,46.12,6.72,1.37,9.53,8.34,15.35,17,14.15l-.08-.59c-8.17.38-14-5.53-15.21-14.53-.13-2.81-8.66-47.58-9.6-50.63l-.37-.5c-.11,0-11.43-3.54-17-5.71-3-1.16-6.9-6.23-9.05-11.77-1.48-3.84-1.81-7.1-.89-8.95,2.34-4.71,10.94-8,15.11-7.5,4.85.53,16.59,13.4,21.62,18.59,5.19,5.35,16.06,22.16,24.47,40.28,7.84,16.9,14.59,50.08,11.29,55.47-3.47,5.65-22.24,15.62-58.13,10.36-11.9-1.74-31-4.89-41.32-8.55l.67,4.87c37.62,14.55,90.38,9,99.67-6.13C415.54,241.66,408.93,208.43,400.81,190.92Zm-19.73-73.7,6.79,10.06-4.15,2.8L376.93,120Zm-8.83-.79,13,19.34-4.14,2.8-13-19.34Zm-12.15,3.25,4.15-2.8L381.86,143l-4.15,2.79Zm-37,51.26-6.78-10.06,4.15-2.8,6.78,10.07Zm8.84.79-13-19.34,4.15-2.8,13,19.34Zm12.15-3.25-4.15,2.8-17.62-26.13,4.15-2.8Z"/><path class="cls-10" d="M327.87,230.83c9.63-1.33,20.12-5.2,26.56-14.82l-.5-.3c-15.25,16.63-42.65,14.8-52.53,14.08l.12.9C305.24,231.25,319.29,232,327.87,230.83Z"/></g></g></svg>