<svg xmlns="http://www.w3.org/2000/svg" xmlns:xlink="http://www.w3.org/1999/xlink" viewBox="0 0 425 425"><defs><style>.cls-1{fill:url(#radial-gradient);}.cls-2{fill:url(#linear-gradient);}.cls-3{fill:url(#linear-gradient-2);}.cls-4{fill:url(#linear-gradient-3);}.cls-5{fill:url(#linear-gradient-4);}.cls-6{fill:url(#linear-gradient-5);}.cls-7{fill:url(#linear-gradient-6);}.cls-8{fill:url(#linear-gradient-7);}.cls-9{fill:url(#linear-gradient-8);}.cls-10{fill:url(#linear-gradient-9);}.cls-11{fill:url(#linear-gradient-10);}.cls-12{fill:url(#linear-gradient-11);}.cls-13{fill:url(#linear-gradient-12);}.cls-14{fill:url(#linear-gradient-13);}.cls-15{fill:url(#linear-gradient-14);}.cls-16{fill:url(#linear-gradient-15);}.cls-17{fill:url(#linear-gradient-16);}.cls-18{fill:url(#linear-gradient-17);}.cls-19{fill:url(#linear-gradient-18);}.cls-20{fill:url(#linear-gradient-19);}.cls-21{fill:url(#radial-gradient-2);}.cls-22{fill:url(#radial-gradient-3);}.cls-23{fill:url(#radial-gradient-4);}.cls-24{fill:url(#radial-gradient-5);}</style><radialGradient id="radial-gradient" cx="212.5" cy="212.5" fx="158.5340175339429" fy="257.82103022966277" r="255.54" gradientTransform="translate(316.82 -151.25) rotate(50.17) scale(1 1.47)" gradientUnits="userSpaceOnUse"><stop offset="0.59" stop-color="#001e34"/><stop offset="1" stop-color="#003d49"/></radialGradient><linearGradient id="linear-gradient" x1="135.94" y1="-268.08" x2="134.15" y2="176.38" gradientUnits="userSpaceOnUse"><stop offset="0" stop-color="#205072"/><stop offset="0.14" stop-color="#1b6b88"/><stop offset="0.74" stop-color="#08d5dd"/><stop offset="1" stop-color="aqua"/></linearGradient><linearGradient id="linear-gradient-2" x1="174.64" y1="-267.92" x2="172.84" y2="176.53" xlink:href="#linear-gradient"/><linearGradient id="linear-gradient-3" x1="203.94" y1="-267.8" x2="202.14" y2="176.65" xlink:href="#linear-gradient"/><linearGradient id="linear-gradient-4" x1="230.85" y1="-267.69" x2="229.05" y2="176.76" xlink:href="#linear-gradient"/><linearGradient id="linear-gradient-5" x1="260" y1="-267.58" x2="258.2" y2="176.88" xlink:href="#linear-gradient"/><linearGradient id="linear-gradient-6" x1="292.78" y1="-267.46" x2="290.98" y2="176.99" xlink:href="#linear-gradient"/><linearGradient id="linear-gradient-7" x1="320.52" y1="-267.33" x2="318.72" y2="177.12" xlink:href="#linear-gradient"/><linearGradient id="linear-gradient-8" x1="110.29" y1="-52.83" x2="108.54" y2="377.28" xlink:href="#linear-gradient"/><linearGradient id="linear-gradient-9" x1="144.1" y1="-52.69" x2="142.35" y2="377.42" xlink:href="#linear-gradient"/><linearGradient id="linear-gradient-10" x1="175.75" y1="-52.56" x2="174.01" y2="377.55" xlink:href="#linear-gradient"/><linearGradient id="linear-gradient-11" x1="207.39" y1="-52.44" x2="205.65" y2="377.68" xlink:href="#linear-gradient"/><linearGradient id="linear-gradient-12" x1="235.37" y1="-52.32" x2="233.63" y2="377.79" xlink:href="#linear-gradient"/><linearGradient id="linear-gradient-13" x1="258.72" y1="-52.23" x2="256.98" y2="377.89" xlink:href="#linear-gradient"/><linearGradient id="linear-gradient-14" x1="284.68" y1="-52.12" x2="282.94" y2="377.99" xlink:href="#linear-gradient"/><linearGradient id="linear-gradient-15" x1="311.17" y1="-52.02" x2="309.43" y2="378.1" xlink:href="#linear-gradient"/><linearGradient id="linear-gradient-16" x1="339.53" y1="-51.9" x2="337.79" y2="378.21" xlink:href="#linear-gradient"/><linearGradient id="linear-gradient-17" x1="153.61" y1="272.82" x2="158.31" y2="205.89" xlink:href="#linear-gradient"/><linearGradient id="linear-gradient-18" x1="209.41" y1="276.74" x2="214.11" y2="209.8" xlink:href="#linear-gradient"/><linearGradient id="linear-gradient-19" x1="271.34" y1="281.08" x2="276.04" y2="214.15" xlink:href="#linear-gradient"/><radialGradient id="radial-gradient-2" cx="101.21" cy="223.58" r="19.56" xlink:href="#linear-gradient"/><radialGradient id="radial-gradient-3" cx="63.64" cy="188.12" r="63.34" xlink:href="#linear-gradient"/><radialGradient id="radial-gradient-4" cx="362.35" cy="188.12" r="63.34" xlink:href="#linear-gradient"/><radialGradient id="radial-gradient-5" cx="327.91" cy="223.58" r="19.56" xlink:href="#linear-gradient"/></defs><title>Asset 13</title><g id="Layer_2" data-name="Layer 2"><g id="Layer_1-2" data-name="Layer 1"><circle class="cls-1" cx="212.5" cy="212.5" r="212.5"/><path class="cls-2" d="M111.56,87.27h6.6L123.45,117h.17L132,87.27h5.25L145.39,117h.22l5.25-29.71h6.59l-8.12,39.47H143l-8.29-29.6h-.17L126,126.74h-6.31Z"/><path class="cls-3" d="M159.71,121.1V104.3l5.58-5.64h15.56l5.64,5.64v16.8l-5.64,5.64H165.29Zm18.15.28,2.26-2.25V106.27L177.86,104h-9.53l-2.25,2.25v12.86l2.25,2.25Z"/><path class="cls-4" d="M193.25,98.66h5.92v4.79l4.68-4.79h7.78v5.47h-6.37l-5.64,5.75v16.86h-6.37Z"/><path class="cls-5" d="M215.86,86.48h6.37v23h5.47l7.5-10.77h7.05l-9.42,13.53,10,14.55h-7.05l-8.17-11.9h-5.36v11.9h-6.37Z"/><path class="cls-6" d="M245.07,121.1V104.3l5.58-5.64h15.56l5.64,5.64v16.8l-5.64,5.64H250.65Zm18.15.28,2.26-2.25V106.27L263.22,104h-9.53l-2.25,2.25v12.86l2.25,2.25Z"/><path class="cls-7" d="M278.33,121V98.66h6.37v20.41l2.2,2.2h4.91l6-6V98.66h6.37v28.08h-5.92v-5.19L293,126.74h-9Z"/><path class="cls-8" d="M314,121.16V104.07H309V98.66h5.18V89.53h6.26v9.13H329v5.41h-8.63v15.06l2.2,2.19H329v5.42H319.6Z"/><path class="cls-9" d="M93.6,322.18V296.32l6.16-6.17H118l6.05,6.06v5h-6.33v-2.78l-2.89-2.84H103l-3.11,3.05v21.18l3.11,3.05h11.78l3.06-3V313h-8.35V307.5H124v14.68l-6.16,6.17H99.76Z"/><path class="cls-10" d="M129.77,323V306.63l5.4-5.46H150l5.51,5.46v10.15H135.94v4.37l2.07,2.07h9.33l2-2v-1.64h6.12v3.49l-5.3,5.3h-15Zm19.53-10.7v-3.76l-2.12-2.19h-9.11l-2.13,2.19v3.76Z"/><path class="cls-11" d="M161.74,301.17h5.73v5l5-5h8.62l5.73,5.73v21.45h-6.17V308.6l-2.12-2.13h-4.92l-5.67,5.73v16.15h-6.17Z"/><path class="cls-12" d="M193.06,323V306.63l5.41-5.46h14.78l5.51,5.46v10.15H199.23v4.37l2.07,2.07h9.33l2-2v-1.64h6.11v3.49l-5.3,5.3h-15Zm19.54-10.7v-3.76l-2.13-2.19h-9.11l-2.13,2.19v3.76Z"/><path class="cls-13" d="M225,301.17h5.73v4.64l4.52-4.64h7.53v5.3h-6.16L231.2,312v16.32H225Z"/><path class="cls-14" d="M244.73,323.49v-6.44l4.86-4.8h14v-4l-2-2H253l-2,2V310H245V306.8l5.57-5.63H264.1l5.57,5.63v21.55h-5.62v-4.2l-4.37,4.2H249.59Zm14.35,0,4.53-4.36v-2.3H252.53l-1.74,1.7v3.32l1.63,1.64Z"/><path class="cls-15" d="M278.4,323V306.41h-4.91v-5.24h5v-8.83h6.05v8.83h8.35v5.24h-8.35V321l2.13,2.13h6.22v5.24H283.8Z"/><path class="cls-16" d="M296.73,322.89V306.63l5.4-5.46h15.06l5.46,5.46v16.26l-5.46,5.46H302.13Zm17.57.27,2.18-2.18V308.54l-2.18-2.18h-9.22l-2.18,2.18V321l2.18,2.18Z"/><path class="cls-17" d="M329.19,301.17h5.73v4.64l4.53-4.64H347v5.3h-6.16L335.36,312v16.32h-6.17Z"/><path class="cls-18" d="M138.72,236.76l-6.12,12.07H119.26l36-72.07,24,48.11H165.84L155.3,203.69l-10.63,21.18Zm52.61,12.07H177.91l-5.95-12H185.3Z"/><path class="cls-19" d="M244.23,177.32v70.45a.92.92,0,0,1-1,.81H231.35c-.18,0-.72-.09-.81-.27l-33.16-47.48v30.45H183.6v-54a1,1,0,0,1,.9-.81h12c.18,0,.72.09.81.27l33.25,47.47V177.32a1,1,0,0,1,1.08-.81h11.62A.92.92,0,0,1,244.23,177.32Z"/><path class="cls-20" d="M304,248.58h-15.5a2.15,2.15,0,0,1-.81-.27l-21-25.95c-1.8,1.89-19.37,21.8-19.37,21.8V177.32a1,1,0,0,1,1-.81h11.89a.89.89,0,0,1,.9.81v32.79l27.12-33.33a2.15,2.15,0,0,1,.81-.27h14.69c1,0,1.44.72.81,1.35l-28.65,35.31,28.92,34.06C305.31,248,304.86,248.58,304,248.58Z"/><path class="cls-21" d="M75.19,215.71l-.49.3c6.43,9.62,16.93,13.49,26.55,14.82,8.58,1.18,22.63.42,26.35-.14l.12-.9C117.84,230.51,90.44,232.34,75.19,215.71Z"/><path class="cls-22" d="M14.84,246.83c-3.3-5.39,3.45-38.57,11.29-55.47,8.41-18.12,19.28-34.93,24.47-40.28,5-5.19,16.77-18.06,21.62-18.59C76.39,132,85,135.28,87.33,140c.92,1.85.59,5.11-.89,8.95-2.15,5.54-6,10.61-9,11.77-5.58,2.17-16.9,5.67-17,5.71l-.37.5c-.94,3.05-9.47,47.82-9.6,50.63-1.25,9-7,14.91-15.21,14.53l-.08.59c8.65,1.2,15.61-4.62,17-14.15C65.22,203.29,77.9,202,98.22,211.8l.31-.53a61.19,61.19,0,0,0-11-5.1c6.61-7.87,16.3-11.17,26-8.84l.42-3.09c-13-2.87-22.22,4.43-27.45,11.57-17.1-5.42-27.84,2-34.28,10.73,0-.29,10.66-46.42,10.87-47,2-.63,10.56-3.85,15.59-5.8,2.43-.95,5-4.41,7-8.22l1.86,1.26-7.19,10.67a2.14,2.14,0,0,0,.27,3l4.15,2.79a2.12,2.12,0,0,0,2.85-.86l1-1.48h0l4.15,2.8a2.13,2.13,0,0,0,2.85-.87l1.83-2.72h0l4.15,2.79a2.14,2.14,0,0,0,2.86-.86l6.78-10.07a2.13,2.13,0,0,0-.26-3l-4.15-2.8h0l1.83-2.72a2.14,2.14,0,0,0-.27-3l-4.15-2.79h0l1-1.48a2.14,2.14,0,0,0-.27-3l-4.15-2.8a2.13,2.13,0,0,0-2.85.87L90.77,152,88,150.12c.09-.24.2-.51.28-.75.81-2.45,1.39-7,0-9.85-2.55-5.15-11.6-8.57-16.15-8.07-1.71.18-4,1.57-6.52,3.54l-5.33-3.59,7.19-10.67a2.12,2.12,0,0,0-.27-3L63,115a2.14,2.14,0,0,0-2.86.86l-1,1.48h0L55,114.51a2.14,2.14,0,0,0-2.86.87l-1.83,2.72h0L46.2,115.3a2.12,2.12,0,0,0-2.85.86l-6.79,10.07a2.14,2.14,0,0,0,.27,3L41,132h0l-1.83,2.72a2.13,2.13,0,0,0,.26,3l4.15,2.79h0l-1,1.47a2.13,2.13,0,0,0,.26,3l4.15,2.8a2.14,2.14,0,0,0,2.86-.87L57,136.2l4,2.72c-4.39,4.11-8.73,8.87-11.22,11.43-5.39,5.55-16.07,22-24.67,40.57C17.06,208.43,10.45,241.66,14,247.38c9.29,15.13,62.05,20.68,99.67,6.13l.67-4.87C104,252.3,84.87,255.45,73,257.19,37.08,262.45,18.31,252.48,14.84,246.83Zm94.83-86-6.78,10.06-4.15-2.79,6.78-10.07Zm-2.58-8.49-13,19.34-4.15-2.8,13-19.34Zm-7.57-10,4.15,2.8L86.05,171.28l-4.15-2.8Zm-61.4-15.07,6.79-10.06L49.06,120l-6.79,10.07Zm2.59,8.49,13-19.34,4.15,2.8-13,19.34Zm7.57,10L44.13,143l17.61-26.14,4.15,2.8Z"/><path class="cls-23" d="M400.81,190.92c-8.6-18.53-19.28-35-24.67-40.57-2.49-2.56-6.83-7.32-11.22-11.43l4-2.72,7.19,10.66a2.14,2.14,0,0,0,2.86.87l4.15-2.8a2.13,2.13,0,0,0,.26-3l-1-1.47h0l4.15-2.79a2.14,2.14,0,0,0,.27-3L385,132h0l4.15-2.8a2.12,2.12,0,0,0,.27-3l-6.79-10.07a2.12,2.12,0,0,0-2.85-.86l-4.15,2.79h0l-1.83-2.72a2.13,2.13,0,0,0-2.85-.87l-4.15,2.8h0l-1-1.48A2.13,2.13,0,0,0,363,115l-4.15,2.79a2.12,2.12,0,0,0-.27,3l7.19,10.67L360.4,135c-2.51-2-4.81-3.36-6.52-3.54-4.55-.5-13.6,2.92-16.15,8.07-1.44,2.9-.86,7.4-.05,9.85.08.24.19.51.28.75L335.22,152,328,141.3a2.13,2.13,0,0,0-2.85-.87l-4.15,2.8a2.14,2.14,0,0,0-.27,3l1,1.48h0l-4.15,2.79a2.14,2.14,0,0,0-.27,3l1.83,2.72h0L315,159a2.13,2.13,0,0,0-.26,3L321.54,172a2.14,2.14,0,0,0,2.86.86l4.15-2.79h0l1.83,2.72a2.13,2.13,0,0,0,2.85.87l4.15-2.8h0l1,1.48a2.12,2.12,0,0,0,2.85.86l4.15-2.79a2.14,2.14,0,0,0,.27-3l-7.19-10.67,1.86-1.26c2,3.81,4.56,7.27,7,8.22,5,1.95,13.57,5.17,15.59,5.8.21.6,10.83,46.73,10.87,47-6.44-8.7-17.18-16.15-34.28-10.73-5.23-7.14-14.45-14.44-27.45-11.57l.42,3.09c9.66-2.33,19.35,1,26,8.84a61.51,61.51,0,0,0-11,5.1l.31.53c20.33-9.81,33-8.51,46.12,6.72,1.37,9.53,8.34,15.35,17,14.15l-.08-.59c-8.17.38-14-5.53-15.21-14.53-.13-2.81-8.66-47.58-9.6-50.63l-.37-.5c-.11,0-11.43-3.54-17-5.71-3-1.16-6.9-6.23-9.05-11.77-1.48-3.84-1.81-7.1-.89-8.95,2.34-4.71,10.94-8,15.11-7.5,4.85.53,16.59,13.4,21.62,18.59,5.19,5.35,16.06,22.16,24.47,40.28,7.84,16.9,14.59,50.08,11.29,55.47-3.47,5.65-22.24,15.62-58.13,10.36-11.9-1.74-31-4.89-41.32-8.55l.67,4.87c37.62,14.55,90.38,9,99.67-6.13C415.54,241.66,408.93,208.43,400.81,190.92Zm-19.73-73.7,6.79,10.06-4.15,2.8L376.93,120Zm-8.83-.79,13,19.34-4.14,2.8-13-19.34Zm-12.15,3.25,4.15-2.8L381.86,143l-4.15,2.79Zm-37,51.26-6.78-10.06,4.15-2.8,6.78,10.07Zm8.84.79-13-19.34,4.15-2.8,13,19.34Zm12.15-3.25-4.15,2.8-17.62-26.13,4.15-2.8Z"/><path class="cls-24" d="M327.87,230.83c9.63-1.33,20.12-5.2,26.56-14.82l-.5-.3c-15.25,16.63-42.65,14.8-52.53,14.08l.12.9C305.24,231.25,319.29,232,327.87,230.83Z"/></g></g></svg>