<svg xmlns="http://www.w3.org/2000/svg" xmlns:xlink="http://www.w3.org/1999/xlink" viewBox="0 0 425 425"><defs><style>.cls-1{fill:url(#linear-gradient);}.cls-2{fill:url(#linear-gradient-2);}.cls-3{fill:url(#linear-gradient-3);}.cls-4{fill:url(#linear-gradient-4);}.cls-5{fill:url(#radial-gradient);}.cls-6{fill:url(#radial-gradient-2);}.cls-7{fill:url(#radial-gradient-3);}.cls-8{fill:url(#radial-gradient-4);}.cls-9{fill:url(#linear-gradient-5);}.cls-10{fill:url(#linear-gradient-6);}.cls-11{fill:url(#linear-gradient-7);}.cls-12{fill:url(#linear-gradient-8);}.cls-13{fill:url(#linear-gradient-9);}.cls-14{fill:url(#linear-gradient-10);}.cls-15{fill:url(#linear-gradient-11);}.cls-16{fill:url(#linear-gradient-12);}.cls-17{fill:url(#linear-gradient-13);}.cls-18{fill:url(#linear-gradient-14);}.cls-19{fill:url(#linear-gradient-15);}.cls-20{fill:url(#linear-gradient-16);}.cls-21{fill:url(#linear-gradient-17);}.cls-22{fill:url(#linear-gradient-18);}.cls-23{fill:url(#linear-gradient-19);}.cls-24{fill:url(#linear-gradient-20);}</style><linearGradient id="linear-gradient" y1="212.5" x2="425" y2="212.5" gradientUnits="userSpaceOnUse"><stop offset="0.08" stop-color="#001e34"/><stop offset="1" stop-color="#003d49"/></linearGradient><linearGradient id="linear-gradient-2" x1="153.61" y1="272.82" x2="158.31" y2="205.89" gradientUnits="userSpaceOnUse"><stop offset="0" stop-color="#205072"/><stop offset="0.14" stop-color="#1b6b88"/><stop offset="0.74" stop-color="#08d5dd"/><stop offset="1" stop-color="aqua"/></linearGradient><linearGradient id="linear-gradient-3" x1="209.41" y1="276.74" x2="214.11" y2="209.8" xlink:href="#linear-gradient-2"/><linearGradient id="linear-gradient-4" x1="271.34" y1="281.08" x2="276.04" y2="214.15" xlink:href="#linear-gradient-2"/><radialGradient id="radial-gradient" cx="101.21" cy="223.58" r="19.56" xlink:href="#linear-gradient-2"/><radialGradient id="radial-gradient-2" cx="63.64" cy="188.12" r="63.34" xlink:href="#linear-gradient-2"/><radialGradient id="radial-gradient-3" cx="362.35" cy="188.12" r="63.34" xlink:href="#linear-gradient-2"/><radialGradient id="radial-gradient-4" cx="327.91" cy="223.58" r="19.56" xlink:href="#linear-gradient-2"/><linearGradient id="linear-gradient-5" x1="128.79" y1="-81.9" x2="127" y2="359.22" xlink:href="#linear-gradient-2"/><linearGradient id="linear-gradient-6" x1="167.19" y1="-81.74" x2="165.41" y2="359.38" xlink:href="#linear-gradient-2"/><linearGradient id="linear-gradient-7" x1="196.27" y1="-81.62" x2="194.49" y2="359.49" xlink:href="#linear-gradient-2"/><linearGradient id="linear-gradient-8" x1="222.98" y1="-81.51" x2="221.2" y2="359.6" xlink:href="#linear-gradient-2"/><linearGradient id="linear-gradient-9" x1="251.91" y1="-81.4" x2="250.13" y2="359.72" xlink:href="#linear-gradient-2"/><linearGradient id="linear-gradient-10" x1="284.45" y1="-81.29" x2="282.66" y2="359.83" xlink:href="#linear-gradient-2"/><linearGradient id="linear-gradient-11" x1="311.98" y1="-81.15" x2="310.19" y2="359.96" xlink:href="#linear-gradient-2"/><linearGradient id="linear-gradient-12" x1="99.68" y1="-33.17" x2="97.9" y2="407.94" xlink:href="#linear-gradient-2"/><linearGradient id="linear-gradient-13" x1="134.36" y1="-33.03" x2="132.57" y2="408.08" xlink:href="#linear-gradient-2"/><linearGradient id="linear-gradient-14" x1="166.83" y1="-32.9" x2="165.04" y2="408.22" xlink:href="#linear-gradient-2"/><linearGradient id="linear-gradient-15" x1="199.27" y1="-32.77" x2="197.48" y2="408.35" xlink:href="#linear-gradient-2"/><linearGradient id="linear-gradient-16" x1="227.97" y1="-32.65" x2="226.18" y2="408.46" xlink:href="#linear-gradient-2"/><linearGradient id="linear-gradient-17" x1="251.91" y1="-32.56" x2="250.13" y2="408.56" xlink:href="#linear-gradient-2"/><linearGradient id="linear-gradient-18" x1="278.54" y1="-32.45" x2="276.76" y2="408.67" xlink:href="#linear-gradient-2"/><linearGradient id="linear-gradient-19" x1="305.71" y1="-32.34" x2="303.92" y2="408.78" xlink:href="#linear-gradient-2"/><linearGradient id="linear-gradient-20" x1="334.79" y1="-32.22" x2="333" y2="408.9" xlink:href="#linear-gradient-2"/></defs><title>Asset 10</title><g id="Layer_2" data-name="Layer 2"><g id="Layer_1-2" data-name="Layer 1"><circle class="cls-1" cx="212.5" cy="212.5" r="212.5"/><path class="cls-2" d="M138.72,236.76l-6.12,12.07H119.26l36-72.07,24,48.11H165.84L155.3,203.69l-10.63,21.18Zm52.61,12.07H177.91l-5.95-12H185.3Z"/><path class="cls-3" d="M244.23,177.32v70.45a.92.92,0,0,1-1,.81H231.35c-.18,0-.72-.09-.81-.27l-33.16-47.48v30.45H183.6v-54a1,1,0,0,1,.9-.81h12c.18,0,.72.09.81.27l33.25,47.47V177.32a1,1,0,0,1,1.08-.81h11.62A.92.92,0,0,1,244.23,177.32Z"/><path class="cls-4" d="M304,248.58h-15.5a2.15,2.15,0,0,1-.81-.27l-21-25.95c-1.8,1.89-19.37,21.8-19.37,21.8V177.32a1,1,0,0,1,1-.81h11.89a.89.89,0,0,1,.9.81v32.79l27.12-33.33a2.15,2.15,0,0,1,.81-.27h14.69c1,0,1.44.72.81,1.35l-28.65,35.31,28.92,34.06C305.31,248,304.86,248.58,304,248.58Z"/><path class="cls-5" d="M75.19,215.71l-.49.3c6.43,9.62,16.93,13.49,26.55,14.82,8.58,1.18,22.63.42,26.35-.14l.12-.9C117.84,230.51,90.44,232.34,75.19,215.71Z"/><path class="cls-6" d="M14.84,246.83c-3.3-5.39,3.45-38.57,11.29-55.47,8.41-18.12,19.28-34.93,24.47-40.28,5-5.19,16.77-18.06,21.62-18.59C76.39,132,85,135.28,87.33,140c.92,1.85.59,5.11-.89,8.95-2.15,5.54-6,10.61-9,11.77-5.58,2.17-16.9,5.67-17,5.71l-.37.5c-.94,3.05-9.47,47.82-9.6,50.63-1.25,9-7,14.91-15.21,14.53l-.08.59c8.65,1.2,15.61-4.62,17-14.15C65.22,203.29,77.9,202,98.22,211.8l.31-.53a61.19,61.19,0,0,0-11-5.1c6.61-7.87,16.3-11.17,26-8.84l.42-3.09c-13-2.87-22.22,4.43-27.45,11.57-17.1-5.42-27.84,2-34.28,10.73,0-.29,10.66-46.42,10.87-47,2-.63,10.56-3.85,15.59-5.8,2.43-.95,5-4.41,7-8.22l1.86,1.26-7.19,10.67a2.14,2.14,0,0,0,.27,3l4.15,2.79a2.12,2.12,0,0,0,2.85-.86l1-1.48h0l4.15,2.8a2.13,2.13,0,0,0,2.85-.87l1.83-2.72h0l4.15,2.79a2.14,2.14,0,0,0,2.86-.86l6.78-10.07a2.13,2.13,0,0,0-.26-3l-4.15-2.8h0l1.83-2.72a2.14,2.14,0,0,0-.27-3l-4.15-2.79h0l1-1.48a2.14,2.14,0,0,0-.27-3l-4.15-2.8a2.13,2.13,0,0,0-2.85.87L90.77,152,88,150.12c.09-.24.2-.51.28-.75.81-2.45,1.39-7,0-9.85-2.55-5.15-11.6-8.57-16.15-8.07-1.71.18-4,1.57-6.52,3.54l-5.33-3.59,7.19-10.67a2.12,2.12,0,0,0-.27-3L63,115a2.14,2.14,0,0,0-2.86.86l-1,1.48h0L55,114.51a2.14,2.14,0,0,0-2.86.87l-1.83,2.72h0L46.2,115.3a2.12,2.12,0,0,0-2.85.86l-6.79,10.07a2.14,2.14,0,0,0,.27,3L41,132h0l-1.83,2.72a2.13,2.13,0,0,0,.26,3l4.15,2.79h0l-1,1.47a2.13,2.13,0,0,0,.26,3l4.15,2.8a2.14,2.14,0,0,0,2.86-.87L57,136.2l4,2.72c-4.39,4.11-8.73,8.87-11.22,11.43-5.39,5.55-16.07,22-24.67,40.57C17.06,208.43,10.45,241.66,14,247.38c9.29,15.13,62.05,20.68,99.67,6.13l.67-4.87C104,252.3,84.87,255.45,73,257.19,37.08,262.45,18.31,252.48,14.84,246.83Zm94.83-86-6.78,10.06-4.15-2.79,6.78-10.07Zm-2.58-8.49-13,19.34-4.15-2.8,13-19.34Zm-7.57-10,4.15,2.8L86.05,171.28l-4.15-2.8Zm-61.4-15.07,6.79-10.06L49.06,120l-6.79,10.07Zm2.59,8.49,13-19.34,4.15,2.8-13,19.34Zm7.57,10L44.13,143l17.61-26.14,4.15,2.8Z"/><path class="cls-7" d="M400.81,190.92c-8.6-18.53-19.28-35-24.67-40.57-2.49-2.56-6.83-7.32-11.22-11.43l4-2.72,7.19,10.66a2.14,2.14,0,0,0,2.86.87l4.15-2.8a2.13,2.13,0,0,0,.26-3l-1-1.47h0l4.15-2.79a2.14,2.14,0,0,0,.27-3L385,132h0l4.15-2.8a2.12,2.12,0,0,0,.27-3l-6.79-10.07a2.12,2.12,0,0,0-2.85-.86l-4.15,2.79h0l-1.83-2.72a2.13,2.13,0,0,0-2.85-.87l-4.15,2.8h0l-1-1.48A2.13,2.13,0,0,0,363,115l-4.15,2.79a2.12,2.12,0,0,0-.27,3l7.19,10.67L360.4,135c-2.51-2-4.81-3.36-6.52-3.54-4.55-.5-13.6,2.92-16.15,8.07-1.44,2.9-.86,7.4-.05,9.85.08.24.19.51.28.75L335.22,152,328,141.3a2.13,2.13,0,0,0-2.85-.87l-4.15,2.8a2.14,2.14,0,0,0-.27,3l1,1.48h0l-4.15,2.79a2.14,2.14,0,0,0-.27,3l1.83,2.72h0L315,159a2.13,2.13,0,0,0-.26,3L321.54,172a2.14,2.14,0,0,0,2.86.86l4.15-2.79h0l1.83,2.72a2.13,2.13,0,0,0,2.85.87l4.15-2.8h0l1,1.48a2.12,2.12,0,0,0,2.85.86l4.15-2.79a2.14,2.14,0,0,0,.27-3l-7.19-10.67,1.86-1.26c2,3.81,4.56,7.27,7,8.22,5,1.95,13.57,5.17,15.59,5.8.21.6,10.83,46.73,10.87,47-6.44-8.7-17.18-16.15-34.28-10.73-5.23-7.14-14.45-14.44-27.45-11.57l.42,3.09c9.66-2.33,19.35,1,26,8.84a61.51,61.51,0,0,0-11,5.1l.31.53c20.33-9.81,33-8.51,46.12,6.72,1.37,9.53,8.34,15.35,17,14.15l-.08-.59c-8.17.38-14-5.53-15.21-14.53-.13-2.81-8.66-47.58-9.6-50.63l-.37-.5c-.11,0-11.43-3.54-17-5.71-3-1.16-6.9-6.23-9.05-11.77-1.48-3.84-1.81-7.1-.89-8.95,2.34-4.71,10.94-8,15.11-7.5,4.85.53,16.59,13.4,21.62,18.59,5.19,5.35,16.06,22.16,24.47,40.28,7.84,16.9,14.59,50.08,11.29,55.47-3.47,5.65-22.24,15.62-58.13,10.36-11.9-1.74-31-4.89-41.32-8.55l.67,4.87c37.62,14.55,90.38,9,99.67-6.13C415.54,241.66,408.93,208.43,400.81,190.92Zm-19.73-73.7,6.79,10.06-4.15,2.8L376.93,120Zm-8.83-.79,13,19.34-4.14,2.8-13-19.34Zm-12.15,3.25,4.15-2.8L381.86,143l-4.15,2.79Zm-37,51.26-6.78-10.06,4.15-2.8,6.78,10.07Zm8.84.79-13-19.34,4.15-2.8,13,19.34Zm12.15-3.25-4.15,2.8-17.62-26.13,4.15-2.8Z"/><path class="cls-8" d="M327.87,230.83c9.63-1.33,20.12-5.2,26.56-14.82l-.5-.3c-15.25,16.63-42.65,14.8-52.53,14.08l.12.9C305.24,231.25,319.29,232,327.87,230.83Z"/><path class="cls-9" d="M104.59,270.79h6.54l5.26,29.49h.17l8.34-29.49h5.2l8.06,29.49h.22l5.21-29.49h6.55L142.08,310h-6.27l-8.23-29.38h-.16L118.91,310h-6.27Z"/><path class="cls-10" d="M152.37,304.36V287.69l5.54-5.6h15.45l5.59,5.6v16.67l-5.59,5.6H157.91Zm18,.28,2.24-2.24V289.64l-2.24-2.23h-9.45l-2.24,2.23V302.4l2.24,2.24Z"/><path class="cls-11" d="M185.67,282.09h5.87v4.76l4.65-4.76h7.72v5.43h-6.32l-5.6,5.71V310h-6.32Z"/><path class="cls-12" d="M208.11,270h6.32v22.78h5.43l7.44-10.69h7L225,295.52l9.9,14.44h-7l-8.11-11.81h-5.32V310h-6.32Z"/><path class="cls-13" d="M237.09,304.36V287.69l5.54-5.6h15.45l5.59,5.6v16.67l-5.59,5.6H242.63Zm18,.28,2.24-2.24V289.64l-2.24-2.23h-9.45l-2.24,2.23V302.4l2.24,2.24Z"/><path class="cls-14" d="M270.11,304.3V282.09h6.32v20.26l2.18,2.18h4.87l5.93-5.93V282.09h6.33V310h-5.88v-5.15l-5.2,5.15h-8.9Z"/><path class="cls-15" d="M305.53,304.42v-17h-5v-5.37h5.15V273h6.21v9.07h8.56v5.37h-8.56V302.4l2.19,2.18h6.37V310h-9.34Z"/><path class="cls-16" d="M82.57,351.43V324.91l6.32-6.33h18.69l6.21,6.21v5.15H107.3v-2.85l-3-2.91H92.25l-3.19,3.13V349l3.19,3.14h12.08l3.14-3.08V342H98.91v-5.59h14.88v15.05l-6.32,6.32H88.89Z"/><path class="cls-17" d="M119.67,352.21V335.48l5.54-5.59h15.16l5.65,5.59v10.41H126v4.48l2.13,2.12h9.57l2-2.07v-1.68H146v3.59l-5.43,5.42H125.15Zm20-11v-3.86l-2.18-2.24h-9.35L126,337.39v3.86Z"/><path class="cls-18" d="M152.46,329.89h5.87V335l5.1-5.09h8.84l5.87,5.87v22h-6.32V337.5l-2.18-2.19h-5l-5.82,5.88v16.56h-6.32Z"/><path class="cls-19" d="M184.58,352.21V335.48l5.54-5.59h15.16l5.65,5.59v10.41h-20v4.48l2.13,2.12h9.57l2-2.07v-1.68h6.27v3.59l-5.43,5.42H190.06Zm20-11v-3.86l-2.18-2.24h-9.35l-2.18,2.24v3.86Z"/><path class="cls-20" d="M217.37,329.89h5.87v4.75l4.65-4.75h7.72v5.42h-6.32l-5.6,5.71v16.73h-6.32Z"/><path class="cls-21" d="M237.57,352.77v-6.6l5-4.92h14.38v-4.14L254.86,335h-8.79L244,337.11v1.79h-6.21v-3.25l5.71-5.76h13.93l5.71,5.76v22.1h-5.76v-4.31l-4.48,4.31H242.55Zm14.72,0,4.64-4.47V346H245.57l-1.79,1.73v3.41l1.68,1.68Z"/><path class="cls-22" d="M272.09,352.21V335.26h-5v-5.37h5.15v-9.07h6.21v9.07H287v5.37h-8.56V350.2l2.18,2.18H287v5.37h-9.35Z"/><path class="cls-23" d="M290.9,352.16V335.48l5.54-5.59h15.44l5.6,5.59v16.68l-5.6,5.59H296.44Zm18,.28,2.24-2.24V337.44l-2.24-2.24h-9.45l-2.24,2.24V350.2l2.24,2.24Z"/><path class="cls-24" d="M324.19,329.89h5.88v4.75l4.64-4.75h7.72v5.42h-6.32l-5.6,5.71v16.73h-6.32Z"/></g></g></svg>